<svg xmlns="http://www.w3.org/2000/svg" viewBox="0 0 24 24" aria-hidden="true">
  <path fill="#0078D4" d="M21.86 17.86q.07-.82.07-1.68 0-3.72-1.87-6.99T15.1 3.1 12 2.02q-.85 0-1.68.07a8 8 0 0 1 11.54 15.77"/>
  <path fill="#50E6FF" d="M21.93 17.93a10.55 10.55 0 0 1-5.07 2.84 10.6 10.6 0 0 1-9.47-1.88 10.55 10.55 0 0 1-2.4-12.35 10.6 10.6 0 0 1 5.93-4.62 10.55 10.55 0 0 0-7.28 5.2 10.55 10.55 0 0 0 .55 10.81"/>
  <path fill="#0078D4" d="M12.01 22.02a10.51 10.51 0 0 0 9.85-6.86 10.55 10.55 0 0 0-6.93-2.11 10.6 10.6 0 0 0-5.07 1.21 10.55 10.55 0 0 0-2.84 5.07 10.6 10.6 0 0 0 4.99 2.69"/>
</svg>
